<?xml version="1.0" standalone="no"?><!DOCTYPE svg PUBLIC "-//W3C//DTD SVG 1.1//EN" "http://www.w3.org/Graphics/SVG/1.1/DTD/svg11.dtd"><svg t="1688899611351" class="icon" viewBox="0 0 1024 1024" version="1.1" xmlns="http://www.w3.org/2000/svg" p-id="2513" xmlns:xlink="http://www.w3.org/1999/xlink" width="200" height="200"><path d="M565.2507527 687.36H165.8907527c-8.96 0-15.36-6.4-15.36-15.36V241.92c0-8.96 6.4-15.36 15.36-15.36h665.6c8.96 0 15.36 6.4 15.36 15.36v166.4c0 8.96-6.4 15.36-15.36 15.36s-15.36-6.4-15.36-15.36V257.28H181.2507527v399.36h384c8.96 0 15.36 6.4 15.36 15.36 0 7.68-7.68 15.36-15.36 15.36z" fill="#2c2c2c" p-id="2514"></path><path d="M581.8907527 797.44H373.2507527c-8.96 0-15.36-6.4-15.36-15.36s6.4-15.36 15.36-15.36h96v-81.92c0-8.96 6.4-15.36 15.36-15.36s15.36 6.4 15.36 15.36v81.92h81.92c8.96 0 15.36 6.4 15.36 15.36s-7.68 15.36-15.36 15.36zM777.7307527 732.16h-39.68c-6.4 0-10.24-3.84-11.52-10.24l-3.84-28.16c-3.84-1.28-6.4-2.56-10.24-3.84L689.4107527 707.84c-5.12 3.84-11.52 2.56-15.36-1.28L647.1707527 678.4c-3.84-3.84-5.12-10.24-1.28-15.36L663.8107527 640c-1.28-3.84-2.56-6.4-3.84-10.24l-28.16-3.84c-5.12-1.28-10.24-5.12-10.24-11.52v-39.68c0-5.12 3.84-10.24 10.24-11.52l28.16-3.84c1.28-3.84 2.56-6.4 3.84-10.24l-17.92-23.04c-3.84-5.12-2.56-11.52 1.28-15.36l28.16-28.16c3.84-3.84 10.24-5.12 15.36-1.28l23.04 17.92c3.84-1.28 6.4-2.56 10.24-3.84l3.84-28.16c1.28-5.12 5.12-10.24 11.52-10.24H779.0107527c5.12 0 10.24 3.84 11.52 10.24l3.84 28.16c3.84 1.28 6.4 2.56 10.24 3.84l23.04-17.92c5.12-3.84 11.52-2.56 15.36 1.28l28.16 28.16c3.84 3.84 5.12 10.24 1.28 15.36l-17.92 23.04c1.28 3.84 2.56 6.4 3.84 10.24l28.16 3.84c5.12 1.28 10.24 5.12 10.24 11.52V614.4c0 5.12-3.84 10.24-10.24 11.52l-28.16 3.84c-1.28 3.84-2.56 6.4-3.84 10.24l17.92 23.04c3.84 5.12 2.56 11.52-1.28 15.36L843.0107527 706.56c-3.84 3.84-10.24 5.12-15.36 1.28L804.6107527 689.92c-3.84 1.28-6.4 2.56-10.24 3.84l-3.84 28.16c-1.28 6.4-6.4 10.24-12.8 10.24z m-29.44-23.04h19.2l3.84-25.6c0-5.12 3.84-8.96 8.96-8.96 6.4-1.28 12.8-5.12 19.2-7.68 3.84-2.56 8.96-2.56 12.8 1.28l20.48 15.36 14.08-14.08-16.64-20.48c-2.56-3.84-2.56-8.96-1.28-12.8 3.84-6.4 6.4-12.8 7.68-19.2 1.28-3.84 5.12-7.68 8.96-8.96l25.6-3.84v-19.2l-25.6-3.84c-5.12 0-8.96-3.84-8.96-8.96-1.28-6.4-5.12-12.8-7.68-19.2-2.56-3.84-2.56-8.96 1.28-12.8l15.36-20.48-14.08-14.08-20.48 15.36c-3.84 2.56-8.96 2.56-12.8 1.28-6.4-3.84-12.8-6.4-19.2-7.68-3.84-1.28-7.68-5.12-8.96-8.96l-3.84-25.6h-19.2l-3.84 25.6c0 5.12-3.84 8.96-8.96 8.96-6.4 1.28-12.8 5.12-19.2 7.68-3.84 2.56-8.96 2.56-12.8-1.28l-20.48-15.36-14.08 14.08 15.36 20.48c2.56 3.84 2.56 8.96 1.28 12.8-3.84 6.4-6.4 12.8-7.68 19.2-1.28 3.84-5.12 7.68-8.96 8.96l-25.6 3.84v19.2l25.6 3.84c5.12 0 8.96 3.84 8.96 8.96 1.28 6.4 5.12 12.8 7.68 19.2 2.56 3.84 2.56 8.96-1.28 12.8l-15.36 20.48 14.08 14.08 20.48-15.36c3.84-2.56 8.96-2.56 12.8-1.28 6.4 3.84 12.8 6.4 19.2 7.68 3.84 1.28 7.68 5.12 8.96 8.96l5.12 25.6zM883.9707527 614.4z" fill="#2c2c2c" p-id="2515"></path><path d="M758.5307527 645.12c-28.16 0-49.92-23.04-49.92-49.92 0-28.16 23.04-49.92 49.92-49.92 28.16 0 49.92 23.04 49.92 49.92 0 28.16-23.04 49.92-49.92 49.92z m0-76.8c-15.36 0-26.88 12.8-26.88 26.88 0 15.36 12.8 26.88 26.88 26.88 15.36 0 26.88-12.8 26.88-26.88 0-15.36-11.52-26.88-26.88-26.88z" fill="#2c2c2c" p-id="2516"></path><path d="M282.3707527 424.96c-29.44 0-52.48-23.04-52.48-52.48s23.04-52.48 52.48-52.48 52.48 23.04 52.48 52.48-24.32 52.48-52.48 52.48z m0-81.92c-16.64 0-29.44 12.8-29.44 29.44 0 16.64 12.8 29.44 29.44 29.44s29.44-12.8 29.44-29.44c-1.28-16.64-14.08-29.44-29.44-29.44z" fill="#2c2c2c" p-id="2517"></path><path d="M346.3707527 488.96c-3.84 0-7.68-2.56-10.24-5.12l-40.96-70.4c-2.56-5.12-1.28-12.8 3.84-15.36 5.12-3.84 12.8-1.28 15.36 3.84l40.96 70.4c2.56 5.12 1.28 12.8-3.84 15.36-1.28 0-3.84 1.28-5.12 1.28z" fill="#2c2c2c" p-id="2518"></path><path d="M375.8107527 559.36c-5.12 0-11.52-1.28-16.64-2.56-12.8-5.12-24.32-14.08-29.44-26.88-6.4-12.8-6.4-26.88-2.56-39.68 5.12-12.8 14.08-24.32 26.88-29.44 25.6-12.8 57.6-1.28 70.4 24.32s1.28 57.6-24.32 70.4c-8.96 2.56-16.64 3.84-24.32 3.84z m0-81.92c-3.84 0-8.96 1.28-12.8 2.56-7.68 3.84-12.8 8.96-15.36 16.64s-2.56 15.36 1.28 23.04 8.96 12.8 16.64 15.36c7.68 2.56 15.36 2.56 23.04-1.28 14.08-7.68 20.48-24.32 14.08-39.68-6.4-10.24-16.64-16.64-26.88-16.64z m-17.92-6.4z" fill="#2c2c2c" p-id="2519"></path><path d="M396.2907527 482.56c-2.56 0-3.84 0-6.4-2.56-5.12-3.84-6.4-10.24-2.56-15.36l44.8-67.84c3.84-5.12 10.24-6.4 15.36-2.56 5.12 3.84 6.4 10.24 2.56 15.36l-44.8 67.84c-1.28 3.84-5.12 5.12-8.96 5.12z" fill="#2c2c2c" p-id="2520"></path><path d="M474.3707527 424.96c-29.44 0-52.48-23.04-52.48-52.48s23.04-52.48 52.48-52.48 52.48 23.04 52.48 52.48-24.32 52.48-52.48 52.48z m0-81.92c-16.64 0-29.44 12.8-29.44 29.44 0 16.64 12.8 29.44 29.44 29.44 16.64 0 29.44-12.8 29.44-29.44 0-16.64-12.8-29.44-29.44-29.44z" fill="#2c2c2c" p-id="2521"></path><path d="M538.3707527 488.96c-3.84 0-7.68-2.56-10.24-5.12l-40.96-70.4c-2.56-5.12-1.28-12.8 3.84-15.36 5.12-3.84 12.8-1.28 15.36 3.84l40.96 70.4c2.56 5.12 1.28 12.8-3.84 15.36-1.28 0-2.56 1.28-5.12 1.28z" fill="#2c2c2c" p-id="2522"></path><path d="M567.8107527 559.36c-19.2 0-38.4-10.24-47.36-29.44-6.4-12.8-6.4-26.88-2.56-39.68 5.12-12.8 14.08-24.32 26.88-29.44 12.8-6.4 26.88-6.4 39.68-2.56 12.8 5.12 24.32 14.08 29.44 26.88 12.8 25.6 1.28 57.6-24.32 70.4-6.4 2.56-14.08 3.84-21.76 3.84z m0-81.92c-3.84 0-8.96 1.28-12.8 2.56-7.68 3.84-12.8 8.96-15.36 16.64s-2.56 15.36 1.28 23.04c7.68 14.08 24.32 20.48 39.68 14.08 14.08-7.68 20.48-24.32 14.08-39.68-3.84-7.68-8.96-12.8-16.64-15.36-3.84 0-6.4-1.28-10.24-1.28z" fill="#2c2c2c" p-id="2523"></path></svg>